<svg version="1.1" xmlns="http://www.w3.org/2000/svg" viewBox="0 0 150.69549119091243 85.71011756641917" width="150.69549119091243" height="85.71011756641917">
  <!-- svg-source:excalidraw -->
  <metadata></metadata>
  <defs>
    <style class="style-fonts"></style>
  </defs>
  <g stroke-linecap="round">
    <g transform="translate(10 75.71011756641917) rotate(0 65.34774559545622 -32.855058783209586)" fill-rule="evenodd">
      <path d="M0 0 L65.71 -65.71 L130.7 -0.72 L0 0" stroke="none" stroke-width="0" fill="#ffffff" fill-rule="evenodd"></path>
      <path d="M0 0 C16.53 -16.53, 33.05 -33.05, 65.71 -65.71 M0 0 C17.19 -17.19, 34.38 -34.38, 65.71 -65.71 M65.71 -65.71 C86.84 -44.58, 107.98 -23.44, 130.7 -0.72 M65.71 -65.71 C83.51 -47.91, 101.32 -30.1, 130.7 -0.72 M130.7 -0.72 C83.48 -0.46, 36.27 -0.2, 0 0 M130.7 -0.72 C81.67 -0.45, 32.64 -0.18, 0 0 M0 0 C0 0, 0 0, 0 0 M0 0 C0 0, 0 0, 0 0" stroke="#ffffff" stroke-width="2" fill="none"></path>
    </g>
  </g>
  <mask></mask>
</svg>